<svg xmlns="http://www.w3.org/2000/svg" width="28.197" height="28.196" viewBox="0 0 28.197 28.196">
  <g id="Group_1550" data-name="Group 1550" transform="translate(-3200.63 -890.051)">
    <path id="Path_1230" data-name="Path 1230" d="M3214.728,890.051a14.1,14.1,0,1,0,14.1,14.1A14.117,14.117,0,0,0,3214.728,890.051Zm0,27.361a13.567,13.567,0,0,1-1.8-.121l-.308-.042.137-.279q.348-.7.674-1.416l.075-.164.176.039a17.68,17.68,0,0,0,4.7.4l.467-.024-.274.379a5.508,5.508,0,0,1-.716.828l-.043.041-.058.013A13.344,13.344,0,0,1,3214.728,917.412Zm-2.952-.332-.173-.042a13.142,13.142,0,0,1-5.089-2.468l-.144-.113.082-.163c.177-.352.359-.708.54-1.065l.259-.507.208.131a20.028,20.028,0,0,0,4.979,2.253l.244.076-.108.231c-.233.5-.469,1.008-.719,1.508Zm7.541-.46.407-.682c.031-.049.061-.1.089-.15l.053-.1.108-.017c.179-.029.353-.064.528-.1l1.706-.345-1.47.745c-.26.132-.521.26-.79.374Zm-1.748-1.591a17.382,17.382,0,0,1-3.452-.355l-.27-.056.109-.252c.57-1.324,1.1-2.687,1.566-4.051l.059-.173.181.024a13.689,13.689,0,0,0,4.414-.127l.292-.057-.026.3a14.21,14.21,0,0,1-1.092,4.533l-.051.12-.131.014A14.935,14.935,0,0,1,3217.569,915.029Zm2.708-.237.139-.384a16.521,16.521,0,0,0,.882-4.492l.01-.154.147-.045a10.774,10.774,0,0,0,3.343-1.685l.309-.235.048.386a9.829,9.829,0,0,1-.48,4.659l-.022.06-.051.039a10.053,10.053,0,0,1-3.927,1.761Zm-7.242-.377-.188-.054a19.28,19.28,0,0,1-5.044-2.274l-.17-.111.094-.18c.682-1.316,1.317-2.492,1.943-3.6l.114-.2.2.12a16.244,16.244,0,0,0,4.529,1.822l.243.056-.082.236c-.484,1.392-1.008,2.738-1.558,4Zm-7.3-.5-.219-.21a13.2,13.2,0,0,1-2.994-4.339l-.031-.072.021-.075c.021-.076.045-.153.069-.229l.16-.526.265.352a16.406,16.406,0,0,0,3.415,3.334l.153.113-.268.525q-.219.43-.434.856Zm1.217-2.409-.212-.16a15.071,15.071,0,0,1-3.563-3.725l-.067-.1.05-.111a14.885,14.885,0,0,1,2.251-3.524l.2-.241.16.272a12.163,12.163,0,0,0,3.174,3.5l.157.118-.1.171c-.688,1.214-1.339,2.413-1.935,3.562Zm19.034-.238.07-1.05a11.8,11.8,0,0,0-.2-3l-.022-.112.079-.084a8.269,8.269,0,0,0,1.647-2.517l.471-1.132-.041,1.226a13.117,13.117,0,0,1-1.517,5.734Zm-8.359-1.8a13.491,13.491,0,0,1-1.507-.086l-.271-.03.083-.26c.6-1.879,1.113-3.795,1.526-5.7l.04-.185.188.008a8.069,8.069,0,0,0,2.033-.164l.22-.046.045.22c.082.4.158.787.221,1.183a25.052,25.052,0,0,1,.311,4.545l0,.174-.17.039A12.3,12.3,0,0,1,3217.623,909.463Zm-2.6-.244-.2-.045a15.625,15.625,0,0,1-4.438-1.763l-.2-.112.115-.2c1.048-1.781,2.129-3.436,3.216-4.921l.116-.158.172.1a9.433,9.433,0,0,0,2.629.94l.226.043-.049.225c-.446,2.035-.945,3.9-1.527,5.7Zm6.328-.322,0-.32a26.316,26.316,0,0,0-.336-4.3c-.07-.436-.153-.884-.247-1.332l-.038-.184.174-.07a6.029,6.029,0,0,0,1.5-.852l.191-.151.135.2a15.555,15.555,0,0,1,2.159,4.822l.032.131-.1.09a9.6,9.6,0,0,1-3.167,1.853Zm-11.835-2.074-.2-.156a11.108,11.108,0,0,1-3.035-3.542l-.076-.145.115-.117a20.559,20.559,0,0,1,4.5-3.388l.192-.109.112.191a6.618,6.618,0,0,0,1.655,1.866l.17.133-.127.175c-1.054,1.443-2.091,3.037-3.171,4.873Zm-6.926-.181-.193-.415a7.436,7.436,0,0,1-.733-4.4l.023-.062a9.036,9.036,0,0,1,2.406-2.793l.369-.286-.008.466a8.758,8.758,0,0,0,.7,3.51l.055.13-.095.106a15.676,15.676,0,0,0-2.314,3.332Zm23.027-.468-.137-.443a16.808,16.808,0,0,0-2.209-4.513l-.091-.133.1-.128a4.3,4.3,0,0,0,.6-1.087l.1-.268.236.161a11.192,11.192,0,0,1,2.983,2.883l.054.08-.021.094a8.353,8.353,0,0,1-1.347,2.971Zm-7.711-3.646h-.272l.053-.267c.207-1.044.4-2.154.565-3.3l.12-.819.309.768a25.2,25.2,0,0,1,1.033,3.15l.056.218-.218.055A6.811,6.811,0,0,1,3217.9,902.528Zm-1.108-.076-.222-.048a8.463,8.463,0,0,1-2.285-.816l-.235-.124.162-.211a38.964,38.964,0,0,1,2.961-3.439l.472-.484-.09.669c-.174,1.307-.409,2.691-.718,4.23Zm-10.966-.31-.113-.333a7.694,7.694,0,0,1-.357-3.573l.016-.111.1-.054a14.232,14.232,0,0,1,4.709-1.5l.279-.042-.023.282a4.394,4.394,0,0,0,.181,1.608l.051.172-.158.087a21.393,21.393,0,0,0-4.429,3.218Zm14.722-.147-.07-.271a25.987,25.987,0,0,0-.927-2.908l-.357-.925.72.682a18.729,18.729,0,0,1,2.014,2.225l.121.16-.146.138a4.861,4.861,0,0,1-1.106.771Zm6.86-.524-.453-.5a13.31,13.31,0,0,0-2.72-2.239l-.107-.068,0-.127a4.353,4.353,0,0,0-.123-1.155l-.091-.377.372.111a7.794,7.794,0,0,1,2.273,1.075l.057.057a5.393,5.393,0,0,1,.724,2.55Zm-14.04-.493-.179-.154a5.443,5.443,0,0,1-1.317-1.659l-.1-.2.2-.1a21.959,21.959,0,0,1,3.918-1.5l.771-.214-.548.583c-.915.973-1.791,2-2.6,3.055Zm9.21-.673-.221-.291a16.96,16.96,0,0,0-1.3-1.462l-.778-.809,1.029.449c.559.244,1.1.512,1.61.795l.154.086-.047.169a4.587,4.587,0,0,1-.292.734Zm-20.355-.765.487-1.021a15.355,15.355,0,0,1,3.04-4.15l.314.319a6.4,6.4,0,0,0-1.423,2.838l-.022.088-.077.048a10.5,10.5,0,0,0-1.48,1.12Zm9.265-1.374-.045-.3a3.78,3.78,0,0,1,.021-1.247l.032-.175.177-.008a20.558,20.558,0,0,1,2.794.04l1.083.087-1.029.348a23.2,23.2,0,0,0-2.758,1.123Zm11.674-.048-.39-.2a19.832,19.832,0,0,0-1.839-.816l-1.172-.451,1.256.018a13.438,13.438,0,0,1,1.719.122l.134.019.045.127a4.13,4.13,0,0,1,.179.746Zm-17.556-1.062.2-.5a8.337,8.337,0,0,1,2.135-3.044l.069-.064.093.005a17.805,17.805,0,0,1,3.334.483l.366.089-.253.279a4.435,4.435,0,0,0-.814,1.258l-.051.121-.13.015a16.756,16.756,0,0,0-4.453,1.147Zm20.141-.35-.723-.266a9.367,9.367,0,0,0-1.487-.408l-.1-.019-.052-.085a6.62,6.62,0,0,0-1.53-1.721l-.235-.189.249-.17c.156-.107.314-.21.473-.313l.189-.123.125.093a13.3,13.3,0,0,1,2.62,2.589Zm-3.332-.848-.54-.031a18.851,18.851,0,0,0-1.936-.01l-.67.03.518-.426c.376-.31.73-.589,1.082-.852l.138-.1.135.107a7.525,7.525,0,0,1,.914.881Zm-6.028-.02-1.345-.141a21.931,21.931,0,0,0-2.835-.118l-.425.01.231-.356a4.136,4.136,0,0,1,.705-.82l.1-.088.124.042a23.319,23.319,0,0,1,2.221.9Zm1.463-.5-.355-.539a16.737,16.737,0,0,0-1.012-1.394l-.3-.373.48.008a8.6,8.6,0,0,1,1.164.1l.2.031-.014.2c-.021.318-.049.634-.078.951Zm.846-.1.046-.533c.029-.349.054-.694.079-1.041l.02-.292.277.1a7.306,7.306,0,0,1,.821.348l.321.159-.283.219c-.3.229-.584.464-.869.7Zm-1.91-.055-.869-.45c-.62-.321-1.193-.584-1.75-.806l-.513-.2.511-.211a6.149,6.149,0,0,1,.9-.289l.129-.031.089.1c.323.355.632.729.918,1.11Zm4.092-1.657-.123-.069a8.722,8.722,0,0,0-1.706-.717l-.169-.051.01-.175c.008-.144.014-.289.02-.433l.024-.535.286.1a16.832,16.832,0,0,1,2.259,1.059l.321.176-.3.205c-.115.078-.229.159-.342.24Zm-8.247-.131-.095-.028a18.761,18.761,0,0,0-2.949-.619l-.646-.082.56-.332a16.852,16.852,0,0,1,2.794-1.2l.269-.1.092.056a14.118,14.118,0,0,1,1.618,1.2l.318.265-.4.121a6.544,6.544,0,0,0-1.48.664Zm5.43-.908-.245-.038a8.462,8.462,0,0,0-2.122-.058l-.106.01-.074-.075a13.176,13.176,0,0,0-1.145-1.047l-.5-.4.644,0a16.581,16.581,0,0,1,3.428.392l.184.04-.008.189c-.006.149-.015.3-.024.45Z" fill="#656887"/>
  </g>
</svg>
