<svg xmlns="http://www.w3.org/2000/svg" width="31.218" height="28.086" viewBox="0 0 31.218 28.086">
  <g id="Group_1551" data-name="Group 1551" transform="translate(-3009.921 -890.106)">
    <path id="Path_1231" data-name="Path 1231" d="M3017.3,893.472l-5.039,8.732-.077-.013a2.007,2.007,0,0,0-.28-.026,1.984,1.984,0,0,0,0,3.968,1.869,1.869,0,0,0,.276-.028l.078-.013.038.067,5,8.665-.055.06a1.978,1.978,0,1,0,3.387,1.814l.022-.084h9.755l.021.084a1.979,1.979,0,1,0,3.387-1.812l-.054-.06,5.039-8.732.077.013a1.981,1.981,0,1,0,.277-3.942,1.9,1.9,0,0,0-.277.028l-.077.013-.039-.067-5-8.665.054-.06a1.978,1.978,0,1,0-3.387-1.814l-.021.084h-9.755l-.022-.084a1.979,1.979,0,1,0-3.387,1.811Zm-6.553,10.677a1.16,1.16,0,1,1,1.16,1.16A1.161,1.161,0,0,1,3010.746,904.149Zm2.282,1.625.082-.059a2.14,2.14,0,0,0,.2-.167l.061-.057,4.934,2.91v5.864l-.083.023c-.05.013-.1.029-.149.047l-.088.03Zm0-3.25,4.958-8.592.088.031c.049.018.1.034.149.047l.083.022V899.9l-4.934,2.911-.061-.058a2.279,2.279,0,0,0-.2-.166Zm.75,1,4.528-2.67v2.883h-4.466Zm0,1.255.057-.191.089-.027h4.379v2.883Zm3.777,11.423a1.16,1.16,0,1,1,1.16,1.16A1.161,1.161,0,0,1,3017.558,916.2Zm0-24.106a1.16,1.16,0,1,1,1.16,1.16A1.161,1.161,0,0,1,3017.558,892.1Zm1.572,22.084v-5.292l2.436,1.437-2.255,3.994-.165-.052Zm0-6.246v-3.373h4.466l.021.084a1.978,1.978,0,0,0,.537.928l.062.06-2.244,3.974Zm0-4.2v-3.37l2.842-1.676,2.244,3.974-.062.06a1.978,1.978,0,0,0-.537.928l-.021.084Zm0-4.327v-5.374l.181-.058,2.255,3.995Zm.9,15.307,2.245-3.973,2.442,1.44-4.526,2.671-.061-.047a.423.423,0,0,1-.038-.03Zm0-21.137.149-.141.076.042,4.46,2.632-2.442,1.441Zm.559-.856.059-.216h9.757l.06.218-4.937,2.909Zm0,22.867.073-.06,4.863-2.865,4.94,2.913-.049.168-.1.045h-9.671Zm2.088-5.565,2.255-3.993.085.025a1.758,1.758,0,0,0,1.016,0l.086-.025,2.255,3.993-2.849,1.68Zm0-11.754,2.848-1.68,2.849,1.68-2.255,3.993-.086-.025a1.741,1.741,0,0,0-1.016,0l-.085.025Zm1.688,5.877a1.16,1.16,0,1,1,1.16,1.16A1.161,1.161,0,0,1,3024.37,904.149Zm1.969-8.036,4.519-2.666.058.036a.274.274,0,0,1,.05.037l.062.06-2.247,3.974Zm0,16.071,2.44-1.44,2.253,3.984-.14.119-.093-.031Zm.5-6.551.062-.061a1.973,1.973,0,0,0,.539-.927l.021-.084h4.466v3.373l-2.841,1.673Zm0-2.968,2.247-3.974,2.839,1.676v3.37h-4.466l-.021-.084a1.979,1.979,0,0,0-.538-.928Zm2.649,7.66,2.437-1.437v5.374l-.181.057Zm0-12.352,2.256-3.995.164.053.017.087v5.292Zm1.689,18.229a1.16,1.16,0,1,1,1.16,1.16A1.161,1.161,0,0,1,3031.183,916.2Zm0-24.106a1.16,1.16,0,1,1,1.16,1.16A1.161,1.161,0,0,1,3031.183,892.1Zm1.572,22.169V908.4l4.934-2.914.061.059a2.108,2.108,0,0,0,.2.166l.081.059-4.956,8.591-.087-.03c-.05-.018-.1-.034-.15-.047Zm0-6.821v-2.883h4.466l.061.213Zm0-3.707v-2.883l4.527,2.67-.047.169-.1.044Zm0-3.841v-5.861l.082-.022c.05-.014.1-.03.15-.047l.087-.031,4.959,8.589-.082.059a2,2,0,0,0-.2.166l-.061.058Zm5.24,4.253a1.16,1.16,0,1,1,1.16,1.16A1.161,1.161,0,0,1,3038,904.149Z" fill="#656887"/>
  </g>
</svg>
