<svg xmlns="http://www.w3.org/2000/svg" width="17.165" height="9.748" viewBox="0 0 17.165 9.748">
  <g id="Layer_2" data-name="Layer 2" transform="translate(-10389.74 -33.126)" opacity="0.65">
    <g id="Group_706" data-name="Group 706">
      <g id="Layer_1-2" data-name="Layer 1-2">
        <path id="Path_548" data-name="Path 548" d="M10399.422,38a4.841,4.841,0,1,1-4.841-4.874,4.857,4.857,0,0,1,4.841,4.874" fill="#98a9b8"/>
        <path id="Path_549" data-name="Path 549" d="M10404.733,38c0,2.534-1.084,4.589-2.42,4.589s-2.422-2.055-2.422-4.589,1.084-4.589,2.42-4.589,2.422,2.054,2.422,4.589" fill="#98a9b8"/>
        <path id="Path_550" data-name="Path 550" d="M10406.905,38c0,2.27-.381,4.111-.852,4.111s-.851-1.841-.851-4.111.381-4.111.851-4.111.852,1.841.852,4.111" fill="#98a9b8"/>
      </g>
    </g>
  </g>
</svg>
