<svg xmlns="http://www.w3.org/2000/svg" width="26.98" height="29.54" viewBox="0 0 26.98 29.54">
  <path id="Path_1228" data-name="Path 1228" d="M3133.47,783.929l-3.112-1.8v-2.489l3.019-1.8a.486.486,0,0,0,.249-.405v-3.858a.448.448,0,0,0-.249-.405l-3.361-1.929a.421.421,0,0,0-.467,0l-1.493.871-4.077-1.96v-1.619a.448.448,0,0,0-.249-.4l-3.3-1.961a.425.425,0,0,0-.467,0l-3.361,1.93a.484.484,0,0,0-.249.4v1.618l-4.076,1.961-1.463-.84a.421.421,0,0,0-.467,0l-3.361,1.929a.487.487,0,0,0-.249.405v3.858a.45.45,0,0,0,.249.405l3.112,1.8v2.489l-3.112,1.8a.487.487,0,0,0-.249.4v3.858a.45.45,0,0,0,.249.4l3.361,1.929a.587.587,0,0,0,.249.062.735.735,0,0,0,.249-.062l1.494-.871,4.076,1.96v1.619a.449.449,0,0,0,.249.4l3.33,1.929a.575.575,0,0,0,.249.063.72.72,0,0,0,.249-.063l3.33-1.929a.485.485,0,0,0,.248-.4v-1.619l4.077-1.96,1.494.871a.585.585,0,0,0,.249.062.741.741,0,0,0,.249-.062l3.329-1.929a.486.486,0,0,0,.249-.4v-3.858A.448.448,0,0,0,3133.47,783.929Zm-.809-6.784-2.4,1.369v-2.738l2.4-1.369ZM3129.8,772.2l2.4,1.37-2.4,1.369-2.4-1.369Zm-3.255,11.581-2.517-1.293v-3.25l2.481-1.274,2.887,1.674v2.489Zm.392-6.633v-2.738l2.4,1.369v2.738Zm-6.752-10.02,2.4,1.369-2.4,1.4-2.4-1.37Zm2.863,2.209v2.739l-2.4,1.369V770.7Zm-5.726,0,2.4,1.37v2.738l-2.4-1.369Zm-.934,1.836v1.183a.448.448,0,0,0,.249.4l3.33,1.93a.585.585,0,0,0,.249.062.741.741,0,0,0,.249-.062l3.329-1.93a.483.483,0,0,0,.249-.4V771.17l3.081,1.494-.84.5a.485.485,0,0,0-.249.405V777.2l-2.434,1.25.009.017-3.192-1.833a.425.425,0,0,0-.467,0l-3.018,1.783-2.536-1.3v-3.545a.45.45,0,0,0-.249-.405l-.841-.5Zm1.416,7.8,2.4-1.369,2.4,1.369-2.4,1.37Zm1.929,2.21v2.738l-2.4-1.369v-2.738Zm.934,0,2.4-1.369v2.738l-2.4,1.369Zm-6.7,2.647-2.929-1.7v-2.489l2.965-1.72,2.434,1.25v3.39Zm-2.9-5.309v-2.738l2.4-1.369v2.738Zm-.5-6.317,2.4,1.37-2.4,1.369-2.4-1.369Zm-2.863,4.948v-2.738l2.4,1.369v2.738Zm2.4,12.136-2.4-1.369v-2.738l2.4,1.369Zm.467-3.578-2.4-1.369,2.4-1.37,2.4,1.37Zm.5,3.578v-2.738l2.4-1.369v2.738Zm8.651,5.042-2.4-1.37v-2.738l2.4,1.369Zm.467-3.548-2.4-1.369,2.4-1.369,2.4,1.369Zm2.863,2.21-2.4,1.369v-2.739l2.4-1.369Zm.964-2.4v-1.182a.449.449,0,0,0-.249-.405l-3.329-1.929a.424.424,0,0,0-.467,0l-3.33,1.929a.488.488,0,0,0-.249.405v1.182l-3.081-1.493.841-.5a.488.488,0,0,0,.249-.4v-3.584l2.473-1.27,2.926,1.7a1.015,1.015,0,0,0,.964,0l2.9-1.733,2.377,1.22v3.67a.448.448,0,0,0,.249.4l.84.5Zm5.322-1.307-2.4-1.369v-2.738l2.4,1.369Zm.466-3.578-2.4-1.369,2.4-1.37,2.4,1.37Zm2.863,2.209-2.4,1.369v-2.738l2.4-1.369Z" transform="translate(-3106.739 -766.09)" fill="#656887"/>
</svg>
