<svg xmlns="http://www.w3.org/2000/svg" width="31.393" height="27.158" viewBox="0 0 31.393 27.158">
  <path id="Path_1227" data-name="Path 1227" d="M3199.545,644.441a10.556,10.556,0,1,0,10.556-10.556A10.567,10.567,0,0,0,3199.545,644.441Zm12.6-13.57c-.815,0-1.83.016-2.9.069a13.527,13.527,0,0,0,.072,27h0a36.875,36.875,0,0,0,4.657.031,14.424,14.424,0,0,0,6.337-1.466l.147.167-.1-.192a14.045,14.045,0,0,0,4.016-2.973l.2.1-.157-.147a13.485,13.485,0,0,0,2.1-2.962.541.541,0,0,0,.052-.1,13.069,13.069,0,0,0,1.029-2.809l.015-.041a.493.493,0,0,0,.042-.183,13.116,13.116,0,0,0,.28-1.755c.031-.383.047-.776.047-1.167,0-.41-.017-.812-.05-1.192a12.653,12.653,0,0,0-.273-1.7.626.626,0,0,0-.047-.218,13.358,13.358,0,0,0-3.211-5.936,14.287,14.287,0,0,0-10.411-4.5C3213.969,630.9,3213.236,630.871,3212.141,630.871Zm-2.238,26.257a12.691,12.691,0,0,1,.1-25.38h.1a12.525,12.525,0,0,1,5.419,1.232c.068.033.128.06.187.087a3.913,3.913,0,0,1,.353.174,12.686,12.686,0,0,1,6.739,11.2,12.151,12.151,0,0,1-.068,1.284c0,.032-.008.065-.014.1s-.008.047-.011.07c-.048.429-.1.775-.166,1.09a.646.646,0,0,1-.017.069l-.011.043c-.085.406-.179.77-.286,1.111a12.722,12.722,0,0,1-7.177,7.924c-.375.158-.743.293-1.12.413l-.136.041c-.329.1-.676.19-1.03.265-.076.018-.155.033-.236.048-.312.061-.642.112-.977.149-.1.012-.206.023-.311.032-.3.027-.6.043-.936.048Zm10.2-1.454h-2.086l.508-.391c.038-.029.074-.061.11-.094s.066-.059.1-.088c.076-.061.149-.126.221-.19l.128-.112a13.673,13.673,0,0,0,1.007-.96l.064-.069h2.787l-.48.388a13.255,13.255,0,0,1-2.312,1.492Zm3.86-2.936h-2.938l.247-.345c.127-.178.248-.355.367-.539.152-.238.3-.476.44-.725l.051-.085c.019-.032.038-.063.056-.1l.062-.115h3.148l-.221.337a12.814,12.814,0,0,1-1.147,1.494Zm1.98-2.937h-3.212l.12-.3c.158-.392.295-.786.409-1.168l.04-.126c.016-.05.033-.1.047-.151l.044-.16h3.286l-.09.284a12.193,12.193,0,0,1-.585,1.495Zm.987-2.936H3223.6l.052-.323c.022-.14.045-.28.062-.422.041-.327.061-.663.077-.953l.011-.206h3.338l-.015.232c0,.051,0,.1-.006.156s0,.131-.009.2c-.028.356-.078.729-.152,1.141Zm.212-2.936H3223.8l-.011-.207c-.014-.271-.036-.629-.08-.984-.017-.126-.037-.253-.058-.379l-.054-.334h3.327l.033.179c.072.4.121.761.151,1.12.006.073.008.146.01.219,0,.052,0,.1,0,.155Zm-.465-2.937h-3.287l-.114-.387c-.117-.4-.258-.808-.421-1.218l-.118-.3h3.209l.059.126a12.477,12.477,0,0,1,.582,1.495Zm-1.282-2.937h-3.142l-.062-.114c-.039-.073-.082-.143-.125-.213l-.084-.139c-.054-.094-.11-.184-.166-.275l-.054-.087c-.154-.248-.314-.492-.484-.731l-.244-.344h2.932l.066.074a13.012,13.012,0,0,1,1.144,1.492Zm-2.44-2.935h-2.8l-.15-.16c-.1-.105-.193-.209-.294-.308l-.129-.116a13.868,13.868,0,0,0-1.08-.93l-.5-.39h2.121l.047.024a13.46,13.46,0,0,1,2.308,1.493Zm-22.4,9.321a9.543,9.543,0,1,1,9.543,9.543A9.555,9.555,0,0,1,3200.558,644.441Zm9.835,4.877v1.219l-.835-.014V649.3a3.259,3.259,0,0,1-3.1-3.191h.917a2.474,2.474,0,0,0,2.7,2.369c1.452,0,2.52-.534,2.52-1.821,0-2.643-5.793-1.3-5.793-4.643,0-1.369,1.1-2.315,2.753-2.465V638.4h.835v1.136a3.036,3.036,0,0,1,2.986,2.767h-.918a2.2,2.2,0,0,0-2.424-1.931c-1.438,0-2.287.63-2.287,1.643,0,2.589,5.82,1.1,5.82,4.643C3213.57,648.29,3212.215,649.222,3210.393,649.318Z" transform="translate(-3196.585 -630.871)" fill="#656887"/>
</svg>
