<svg xmlns="http://www.w3.org/2000/svg" width="32.449" height="30.056" viewBox="0 0 32.449 30.056">
  <g id="Group_1549" data-name="Group 1549" transform="translate(-3008.859 -630.614)">
    <g id="Group_1548" data-name="Group 1548">
      <path id="Path_1229" data-name="Path 1229" d="M3015.759,650.756h2.522l.06.155a2.632,2.632,0,0,0,2.478,1.682h3.778v3.577l-.172.052a2.275,2.275,0,1,0,2.946,2.16,2.252,2.252,0,0,0-1.63-2.16l-.172-.052v-3.577h3.778a2.7,2.7,0,0,0,2.48-1.689l.063-.148h2.517v3.022l-.172.052a2.275,2.275,0,1,0,2.947,2.16,2.252,2.252,0,0,0-1.63-2.16l-.173-.052V650.27a.47.47,0,0,0-.486-.486h-2.876v-3.6h4.79l.051.173a2.271,2.271,0,0,0,4.449-.659,2.195,2.195,0,0,0-.633-1.6,2.251,2.251,0,0,0-3.781.944l-.052.172h-4.79V641.57h2.877a.494.494,0,0,0,.486-.486V637.61l.172-.051a2.29,2.29,0,1,0-2.947-2.2,2.341,2.341,0,0,0,1.638,2.2l.165.055v2.947h-2.523l-.059-.154a2.633,2.633,0,0,0-2.478-1.683H3025.6v-3.612l.172-.051a2.275,2.275,0,1,0-2.947-2.16,2.253,2.253,0,0,0,1.63,2.16l.173.051v3.612h-3.813a2.7,2.7,0,0,0-2.48,1.689l-.063.148h-2.517V637.61l.172-.051a2.29,2.29,0,1,0-2.946-2.2,2.34,2.34,0,0,0,1.636,2.2l.166.055v3.468a.493.493,0,0,0,.486.486h2.877v3.638h-4.756l-.052-.172a2.29,2.29,0,1,0-2.194,2.947,2.342,2.342,0,0,0,2.2-1.637l.055-.166h4.75v3.6h-2.877a.492.492,0,0,0-.486.486v3.508l-.173.052a2.275,2.275,0,1,0,2.947,2.16,2.252,2.252,0,0,0-1.63-2.16l-.172-.052Zm9.359,8.977a1.283,1.283,0,0,1-1.282-1.282,1.316,1.316,0,0,1,1.282-1.282,1.282,1.282,0,0,1,0,2.564Zm9.845-2.426a1.283,1.283,0,1,1,1.282-1.283A1.285,1.285,0,0,1,3034.963,657.307Zm-19.656,0a1.283,1.283,0,1,1,1.283-1.283A1.285,1.285,0,0,1,3015.307,657.307Zm14.109-5.651h-8.6a1.646,1.646,0,0,1-1.663-1.663V641.43a1.646,1.646,0,0,1,1.663-1.663h8.563a1.646,1.646,0,0,1,1.663,1.663v8.32l.035.243A1.646,1.646,0,0,1,3029.416,651.656Zm-6.229-6.014V643.4a.324.324,0,0,1,.485-.28l1.94,1.12,1.94,1.12a.323.323,0,0,1,0,.56l-1.94,1.12-1.94,1.12a.323.323,0,0,1-.485-.28Zm15.866,1.369a1.282,1.282,0,1,1,1.282-1.282A1.283,1.283,0,0,1,3039.053,647.011Zm-27.871,0a1.316,1.316,0,0,1-1.282-1.282,1.282,1.282,0,0,1,2.564,0A1.316,1.316,0,0,1,3011.182,647.011Zm23.746-10.33a1.282,1.282,0,1,1,1.282-1.282A1.283,1.283,0,0,1,3034.928,636.681Zm-19.655,0a1.268,1.268,0,0,1-1.282-1.282,1.282,1.282,0,1,1,1.282,1.282Zm9.81-2.461a1.282,1.282,0,1,1,1.282-1.283A1.283,1.283,0,0,1,3025.083,634.22Z" fill="#656887"/>
    </g>
  </g>
</svg>
